<svg width="48" height="48" viewBox="0 0 48 48" fill="none" xmlns="http://www.w3.org/2000/svg">
<path d="M24 4.875C20.2174 4.875 16.5198 5.99666 13.3747 8.09814C10.2296 10.1996 7.77834 13.1865 6.33081 16.6812C4.88329 20.1758 4.50455 24.0212 5.24249 27.7311C5.98043 31.441 7.80191 34.8487 10.4766 37.5234C13.1513 40.1981 16.559 42.0196 20.2689 42.7575C23.9788 43.4955 27.8242 43.1167 31.3188 41.6692C34.8135 40.2217 37.8004 37.7704 39.9019 34.6253C42.0033 31.4802 43.125 27.7826 43.125 24C43.1191 18.9296 41.1022 14.0685 37.5168 10.4832C33.9315 6.89782 29.0704 4.88095 24 4.875ZM24 40.875C20.6624 40.875 17.3998 39.8853 14.6248 38.031C11.8497 36.1768 9.68677 33.5413 8.40954 30.4578C7.13231 27.3743 6.79813 23.9813 7.44926 20.7079C8.10038 17.4344 9.70757 14.4276 12.0676 12.0676C14.4276 9.70756 17.4344 8.10037 20.7079 7.44925C23.9813 6.79812 27.3743 7.1323 30.4578 8.40953C33.5413 9.68676 36.1768 11.8497 38.0311 14.6248C39.8853 17.3998 40.875 20.6624 40.875 24C40.87 28.474 39.0906 32.7633 35.927 35.9269C32.7634 39.0905 28.474 40.87 24 40.875ZM15.375 20.25C15.375 19.8792 15.485 19.5166 15.691 19.2083C15.897 18.9 16.1899 18.6596 16.5325 18.5177C16.8751 18.3758 17.2521 18.3387 17.6158 18.411C17.9795 18.4834 18.3136 18.662 18.5758 18.9242C18.8381 19.1864 19.0166 19.5205 19.089 19.8842C19.1613 20.2479 19.1242 20.6249 18.9823 20.9675C18.8404 21.3101 18.6 21.603 18.2917 21.809C17.9834 22.015 17.6208 22.125 17.25 22.125C16.7527 22.125 16.2758 21.9275 15.9242 21.5758C15.5726 21.2242 15.375 20.7473 15.375 20.25ZM32.625 20.25C32.625 20.6208 32.515 20.9834 32.309 21.2917C32.103 21.6 31.8102 21.8404 31.4675 21.9823C31.1249 22.1242 30.7479 22.1613 30.3842 22.089C30.0205 22.0166 29.6864 21.838 29.4242 21.5758C29.162 21.3136 28.9834 20.9795 28.911 20.6158C28.8387 20.2521 28.8758 19.8751 29.0177 19.5325C29.1596 19.1899 29.4 18.897 29.7083 18.691C30.0167 18.485 30.3792 18.375 30.75 18.375C31.2473 18.375 31.7242 18.5725 32.0758 18.9242C32.4275 19.2758 32.625 19.7527 32.625 20.25ZM32.4731 32.4375C32.6076 32.6946 32.6376 32.9937 32.5567 33.2724C32.4759 33.5511 32.2905 33.7877 32.0393 33.933C31.7881 34.0782 31.4905 34.1207 31.2086 34.0517C30.9268 33.9826 30.6825 33.8074 30.5269 33.5625C29.0569 31.0238 26.7394 29.625 24 29.625C21.2606 29.625 18.9375 31.0238 17.4731 33.5625C17.3743 33.7336 17.2322 33.8757 17.061 33.9745C16.8899 34.0732 16.6957 34.1251 16.4981 34.125C16.3004 34.1255 16.1062 34.0731 15.9356 33.9731C15.6781 33.8234 15.4904 33.5777 15.4138 33.2898C15.3371 33.0019 15.3778 32.6954 15.5269 32.4375C17.3869 29.22 20.475 27.375 24 27.375C27.525 27.375 30.6131 29.22 32.4731 32.4375Z" fill="#46217E"/>
</svg>
